<?xml version="1.0" encoding="utf-8"?><!-- Uploaded to: SVG Repo, www.svgrepo.com, Generator: SVG Repo Mixer Tools -->
<svg width="800px" height="800px" viewBox="0 0 24 24" fill="none" xmlns="http://www.w3.org/2000/svg">
<rect width="24" height="24" fill="#f5f5f5"/>
<path fill-rule="evenodd" clip-rule="evenodd" d="M10.2071 10.2929C9.81658 9.90237 9.18342 9.90237 8.79289 10.2929C8.40237 10.6834 8.40237 11.3166 8.79289 11.7071L10.5858 13.5L8.79289 15.2929C8.40237 15.6834 8.40237 16.3166 8.79289 16.7071C9.18342 17.0976 9.81658 17.0976 10.2071 16.7071L12 14.9142L13.7929 16.7071C14.1834 17.0976 14.8166 17.0976 15.2071 16.7071C15.5976 16.3166 15.5976 15.6834 15.2071 15.2929L13.4142 13.5L15.2071 11.7071C15.5976 11.3166 15.5976 10.6834 15.2071 10.2929C14.8166 9.90237 14.1834 9.90237 13.7929 10.2929L12 12.0858L10.2071 10.2929ZM12.482 1.99989C13.1608 1.99885 13.7632 1.99793 14.3196 2.2284C14.876 2.45887 15.3014 2.88551 15.7806 3.36624C16.7302 4.31875 17.6813 5.26983 18.6338 6.21942C19.1145 6.69867 19.5412 7.12401 19.7716 7.68041C20.0021 8.23682 20.0012 8.83926 20.0001 9.51807C19.9963 12.034 20 14.5499 20 17.0659C20.0001 17.9524 20.0001 18.7162 19.9179 19.3278C19.8297 19.9833 19.631 20.6117 19.1213 21.1214C18.6117 21.631 17.9833 21.8298 17.3278 21.9179C16.7161 22.0001 15.9523 22.0001 15.0658 22H8.9342C8.0477 22.0001 7.28388 22.0001 6.67221 21.9179C6.0167 21.8298 5.38835 21.631 4.87868 21.1214C4.36902 20.6117 4.17028 19.9833 4.08215 19.3278C3.99991 18.7162 3.99995 17.9524 4 17.0659L4.00001 7.00004C4.00001 6.97802 4 6.95607 4 6.93421C3.99995 6.04772 3.99991 5.28391 4.08215 4.67224C4.17028 4.01673 4.36902 3.38838 4.87869 2.87872C5.38835 2.36905 6.0167 2.17031 6.67221 2.08218C7.28387 1.99994 8.04769 1.99998 8.93418 2.00003C10.1168 2.0001 11.2994 2.00171 12.482 1.99989Z" fill="#456c99"/>
</svg>