<?xml version="1.0" encoding="utf-8"?><!-- Uploaded to: SVG Repo, www.svgrepo.com, Generator: SVG Repo Mixer Tools -->
<svg width="800px" height="800px" viewBox="0 0 24 24" fill="none" xmlns="http://www.w3.org/2000/svg">
<rect width="24" height="24" fill="#f5f5f5"/>
<path fill-rule="evenodd" clip-rule="evenodd" d="M2 12C2 6.47715 6.47715 2 12 2C17.5228 2 22 6.47715 22 12C22 17.5228 17.5228 22 12 22C6.47715 22 2 17.5228 2 12ZM13.7071 8.29289C14.0976 8.68342 14.0976 9.31658 13.7071 9.70711L11.4142 12L13.7071 14.2929C14.0976 14.6834 14.0976 15.3166 13.7071 15.7071C13.3166 16.0976 12.6834 16.0976 12.2929 15.7071L9.5554 12.9696C9.0199 12.4341 9.0199 11.5659 9.55541 11.0304L12.2929 8.29289C12.6834 7.90237 13.3166 7.90237 13.7071 8.29289Z" fill="#2d2d2d"/>
</svg>